<svg width="64" height="32" viewBox="0 0 64 32" fill="none" xmlns="http://www.w3.org/2000/svg">
<path d="M0 32C0 23.5131 3.37142 15.3737 9.37258 9.37258C15.3737 3.37142 23.5131 0 32 0C40.4869 0 48.6263 3.37142 54.6274 9.37258C60.6286 15.3737 64 23.5131 64 32H56C56 25.6348 53.4714 19.5303 48.9706 15.0294C44.4697 10.5286 38.3652 8 32 8C25.6348 8 19.5303 10.5286 15.0294 15.0294C10.5286 19.5303 8 25.6348 8 32H0Z" fill="#E6F4F2"/>
<path d="M0 28.2543C0 22.4476 1.57999 16.7504 4.57065 11.7731C7.56131 6.79581 11.8499 2.72607 16.9769 0L19.7937 5.29769C15.6281 7.51262 12.1436 10.8193 9.71365 14.8633C7.28374 18.9074 6 23.5364 6 28.2543H0Z" fill="#247A78"/>
<path d="M3.17952 0C7.78262 2.87634 11.5784 6.8763 14.2099 11.6236C16.8414 16.371 18.2221 21.7097 18.2221 27.1375H12.2221C12.2221 22.7274 11.1003 18.3897 8.96221 14.5325C6.82413 10.6753 3.74003 7.42532 0 5.08829L3.17952 0Z" fill="#C14A3B"/>
</svg>
